<svg width="280" height="295" viewBox="0 0 280 295" fill="none" xmlns="http://www.w3.org/2000/svg">
<rect y="15" width="280" height="280" rx="32" fill="#C6BEAC"/>
<g clip-path="url(#clip0_605_12)">
<path fill-rule="evenodd" clip-rule="evenodd" d="M40 40C40 95.2285 84.7715 140 140 140C84.7715 140 40 184.772 40 240H52C52 191.399 91.3989 152 140 152C188.601 152 228 191.399 228 240H240C240 184.772 195.228 140 140 140C195.228 140 240 95.2285 240 40H228C228 88.6011 188.601 128 140 128C91.3989 128 52 88.6011 52 40H40ZM64 40C64 81.9736 98.0264 116 140 116C181.974 116 216 81.9736 216 40H204C204 75.3462 175.346 104 140 104C104.654 104 76 75.3462 76 40H64ZM88 40C88 68.7188 111.281 92 140 92C168.719 92 192 68.7188 192 40H180C180 62.0914 162.091 80 140 80C117.909 80 100 62.0914 100 40H88ZM140 164C181.974 164 216 198.026 216 240H204C204 204.654 175.346 176 140 176C104.654 176 76 204.654 76 240H64C64 198.026 98.0264 164 140 164ZM140 188C168.719 188 192 211.281 192 240H180C180 217.909 162.091 200 140 200C117.909 200 100 217.909 100 240H88C88 211.281 111.281 188 140 188Z" fill="black"/>
</g>
<path d="M72.9688 139.062C72.9688 140.958 72.6979 142.771 72.1562 144.5C71.6146 146.208 70.8333 147.771 69.8125 149.188C68.8125 150.604 67.5833 151.844 66.125 152.906C64.6875 153.948 63.0625 154.75 61.25 155.312C61.8958 156.417 62.6146 157.448 63.4062 158.406C64.1979 159.385 65.0625 160.25 66 161C66.9583 161.75 68 162.354 69.125 162.812C70.2708 163.292 71.5104 163.594 72.8438 163.719V164.469C71.1354 164.385 69.3542 164.094 67.5 163.594C65.6667 163.115 63.875 162.469 62.125 161.656C60.375 160.865 58.7188 159.927 57.1562 158.844C55.6146 157.76 54.2708 156.583 53.125 155.312C49.25 153.958 46.3646 151.927 44.4688 149.219C42.5938 146.49 41.6562 143.083 41.6562 139C41.6562 136.688 42.0417 134.521 42.8125 132.5C43.5833 130.479 44.6667 128.719 46.0625 127.219C47.4792 125.719 49.1562 124.542 51.0938 123.688C53.0521 122.812 55.2188 122.375 57.5938 122.375C59.9271 122.375 62.0417 122.823 63.9375 123.719C65.8333 124.615 67.4479 125.833 68.7812 127.375C70.1146 128.896 71.1458 130.667 71.875 132.688C72.6042 134.688 72.9688 136.812 72.9688 139.062ZM67.5938 139.625C67.5938 138.5 67.5312 137.344 67.4062 136.156C67.2812 134.948 67.0625 133.771 66.75 132.625C66.4583 131.458 66.0521 130.365 65.5312 129.344C65.0312 128.302 64.3958 127.396 63.625 126.625C62.875 125.854 61.9792 125.24 60.9375 124.781C59.8958 124.323 58.6771 124.094 57.2812 124.094C55.9271 124.094 54.7292 124.312 53.6875 124.75C52.6458 125.167 51.75 125.75 51 126.5C50.25 127.229 49.625 128.083 49.125 129.062C48.625 130.042 48.2188 131.083 47.9062 132.188C47.6146 133.292 47.4062 134.427 47.2812 135.594C47.1562 136.76 47.0938 137.896 47.0938 139C47.0938 140.083 47.1562 141.208 47.2812 142.375C47.4062 143.542 47.625 144.688 47.9375 145.812C48.25 146.917 48.6562 147.969 49.1562 148.969C49.6771 149.969 50.3125 150.854 51.0625 151.625C51.8125 152.375 52.6979 152.979 53.7188 153.438C54.7604 153.875 55.9479 154.094 57.2812 154.094C59.3229 154.094 61 153.656 62.3125 152.781C63.6458 151.906 64.6979 150.781 65.4688 149.406C66.2604 148.01 66.8125 146.458 67.125 144.75C67.4375 143.021 67.5938 141.312 67.5938 139.625Z" fill="black"/>
<path d="M247.062 155L236.25 140.094C235.896 140.135 235.521 140.156 235.125 140.156C234.75 140.156 234.365 140.156 233.969 140.156C233.781 140.156 233.594 140.156 233.406 140.156C233.219 140.135 233.031 140.115 232.844 140.094V149.375C232.844 150.354 232.896 151.156 233 151.781C233.125 152.385 233.354 152.865 233.688 153.219C234.021 153.552 234.49 153.781 235.094 153.906C235.719 154.031 236.531 154.094 237.531 154.094V155H223.844V154.094C224.865 154.094 225.677 154.031 226.281 153.906C226.885 153.781 227.344 153.552 227.656 153.219C227.969 152.865 228.167 152.385 228.25 151.781C228.333 151.156 228.375 150.354 228.375 149.375V128.688C228.375 127.688 228.333 126.885 228.25 126.281C228.167 125.656 227.969 125.167 227.656 124.812C227.344 124.458 226.885 124.219 226.281 124.094C225.677 123.969 224.865 123.906 223.844 123.906V123.062H235.875C236.812 123.062 237.771 123.094 238.75 123.156C239.75 123.219 240.719 123.354 241.656 123.562C242.615 123.771 243.521 124.062 244.375 124.438C245.229 124.792 245.979 125.281 246.625 125.906C247.271 126.51 247.781 127.25 248.156 128.125C248.531 129 248.719 130.042 248.719 131.25C248.719 132.458 248.521 133.531 248.125 134.469C247.729 135.385 247.177 136.177 246.469 136.844C245.781 137.49 244.958 138.031 244 138.469C243.042 138.885 242.01 139.208 240.906 139.438L247.438 148.656C248.021 149.469 248.583 150.188 249.125 150.812C249.667 151.438 250.25 151.979 250.875 152.438C251.5 152.896 252.188 153.26 252.938 153.531C253.708 153.802 254.604 153.99 255.625 154.094V155H247.062ZM243.469 131.625C243.469 130.604 243.302 129.677 242.969 128.844C242.635 128.01 242.156 127.302 241.531 126.719C240.927 126.115 240.198 125.656 239.344 125.344C238.51 125.01 237.583 124.844 236.562 124.844C235.958 124.844 235.344 124.885 234.719 124.969C234.115 125.052 233.49 125.146 232.844 125.25V138.562H234.188C235.333 138.562 236.458 138.448 237.562 138.219C238.667 137.99 239.656 137.615 240.531 137.094C241.406 136.552 242.115 135.844 242.656 134.969C243.198 134.073 243.469 132.958 243.469 131.625Z" fill="black"/>
<path d="M143.688 248V247.094C144.042 247.094 144.406 247.073 144.781 247.031C145.156 246.969 145.5 246.865 145.812 246.719C146.125 246.573 146.385 246.375 146.594 246.125C146.802 245.854 146.906 245.5 146.906 245.062C146.906 244.646 146.781 244.062 146.531 243.312C146.281 242.562 146 241.792 145.688 241C145.375 240.208 145.062 239.469 144.75 238.781C144.438 238.094 144.219 237.604 144.094 237.312H131.719C131.635 237.479 131.5 237.76 131.312 238.156C131.146 238.531 130.948 238.969 130.719 239.469C130.49 239.948 130.26 240.458 130.031 241C129.802 241.542 129.583 242.073 129.375 242.594C129.188 243.115 129.031 243.594 128.906 244.031C128.781 244.469 128.719 244.812 128.719 245.062C128.719 245.479 128.854 245.823 129.125 246.094C129.396 246.344 129.729 246.542 130.125 246.688C130.521 246.833 130.927 246.938 131.344 247C131.76 247.042 132.125 247.073 132.438 247.094V248H122.375V247.094C123.125 247.073 123.771 246.896 124.312 246.562C124.854 246.229 125.323 245.802 125.719 245.281C126.135 244.76 126.49 244.188 126.781 243.562C127.073 242.917 127.354 242.281 127.625 241.656L138.906 215.375H139.719L150.812 241.844C151.125 242.573 151.417 243.25 151.688 243.875C151.979 244.479 152.323 245.021 152.719 245.5C153.115 245.958 153.594 246.333 154.156 246.625C154.719 246.896 155.438 247.052 156.312 247.094V248H143.688ZM138 222.594L132.438 235.594H143.438L138 222.594Z" fill="black"/>
<path d="M132.219 61V60.0938C133.24 60.0938 134.052 60.0312 134.656 59.9062C135.26 59.7604 135.719 59.5208 136.031 59.1875C136.344 58.8333 136.542 58.3542 136.625 57.75C136.708 57.125 136.75 56.3333 136.75 55.375V34.6875C136.75 33.7083 136.708 32.9167 136.625 32.3125C136.542 31.6875 136.344 31.1979 136.031 30.8438C135.719 30.4896 135.26 30.25 134.656 30.125C134.052 29.9792 133.24 29.9062 132.219 29.9062V29.0625H145.906V29.9062C144.906 29.9062 144.104 29.9792 143.5 30.125C142.896 30.25 142.427 30.4896 142.094 30.8438C141.781 31.1979 141.573 31.6875 141.469 32.3125C141.365 32.9167 141.312 33.7083 141.312 34.6875V55.375C141.312 56.3333 141.354 57.125 141.438 57.75C141.542 58.3542 141.75 58.8333 142.062 59.1875C142.375 59.5208 142.833 59.7604 143.438 59.9062C144.042 60.0312 144.865 60.0938 145.906 60.0938V61H132.219Z" fill="black"/>
<defs>
<clipPath id="clip0_605_12">
<rect width="200" height="200" fill="white" transform="translate(40 40)"/>
</clipPath>
</defs>
</svg>
